<svg width="35" height="104" viewBox="0 0 35 104" fill="none" xmlns="http://www.w3.org/2000/svg">
<path d="M25.9484 27.392C23.4737 27.392 21.5537 26.784 20.1884 25.568C18.8444 24.352 18.1724 22.7947 18.1724 20.896C18.1724 19.1893 18.6097 17.824 19.4844 16.8C20.3804 15.7547 21.383 15.0827 22.4924 14.784V14.752C21.255 14.4107 20.3057 13.792 19.6444 12.896C19.0044 11.9787 18.6844 10.8267 18.6844 9.44C18.6844 7.79733 19.3457 6.4 20.6684 5.248C21.991 4.07467 23.7297 3.488 25.8844 3.488C27.9964 3.488 29.7457 4.02133 31.1324 5.088C32.5404 6.13333 33.2444 7.63733 33.2444 9.6C33.2444 11.0933 32.839 12.2667 32.0284 13.12C31.2177 13.952 30.3644 14.496 29.4684 14.752V14.784C30.727 15.1467 31.7724 15.8293 32.6044 16.832C33.4577 17.8347 33.8844 19.1147 33.8844 20.672C33.8844 22.6987 33.159 24.3307 31.7084 25.568C30.279 26.784 28.359 27.392 25.9484 27.392ZM22.1404 9.568C22.1404 10.08 22.2044 10.6027 22.3324 11.136C22.4817 11.648 22.7377 12.0853 23.1004 12.448C23.399 12.8533 23.783 13.1733 24.2524 13.408C24.7217 13.6213 25.2657 13.728 25.8844 13.728C27.143 13.728 28.103 13.3973 28.7644 12.736C29.4257 12.0533 29.7564 10.9973 29.7564 9.568C29.7564 8.43733 29.4257 7.49867 28.7644 6.752C28.103 5.984 27.143 5.6 25.8844 5.6C24.6897 5.6 23.7617 5.96267 23.1004 6.688C22.4604 7.392 22.1404 8.352 22.1404 9.568ZM21.8204 20.736C21.8204 22.08 22.151 23.1573 22.8124 23.968C23.4737 24.7787 24.4977 25.184 25.8844 25.184C27.143 25.184 28.1884 24.8213 29.0204 24.096C29.8524 23.3493 30.2684 22.2187 30.2684 20.704C30.2897 19.2107 29.9057 18.0267 29.1164 17.152C28.327 16.2773 27.2497 15.84 25.8844 15.84C24.6044 15.84 23.6017 16.2987 22.8764 17.216C22.1724 18.1333 21.8204 19.3067 21.8204 20.736Z" fill="white"/>
<path d="M8.82689 27.392C7.35489 27.4133 6.10689 27.104 5.08289 26.464C4.05889 25.8027 3.22689 24.9173 2.58689 23.808C1.98955 22.72 1.55222 21.4507 1.27489 20C0.997553 18.5493 0.858887 17.0133 0.858887 15.392C0.858887 14.0267 0.986887 12.6507 1.24289 11.264C1.49889 9.856 1.92555 8.58666 2.52289 7.456C3.14155 6.32533 3.96289 5.39733 4.98689 4.672C6.01089 3.92533 7.26955 3.54133 8.76289 3.52C10.2136 3.54133 11.4616 3.91466 12.5069 4.64C13.5522 5.344 14.3736 6.26133 14.9709 7.392C15.6109 8.50133 16.0696 9.77066 16.3469 11.2C16.6242 12.608 16.7629 14.0053 16.7629 15.392C16.7629 16.8213 16.6242 18.2507 16.3469 19.68C16.0696 21.1093 15.6109 22.3893 14.9709 23.52C14.3736 24.672 13.5522 25.6107 12.5069 26.336C11.4829 27.0613 10.2562 27.4133 8.82689 27.392ZM4.44289 15.392C4.44289 16.5013 4.50689 17.632 4.63489 18.784C4.78422 19.936 5.02955 20.9813 5.37089 21.92C5.71222 22.88 6.16022 23.6373 6.71489 24.192C7.26955 24.7467 7.97355 25.024 8.82689 25.024C9.65889 25.024 10.3522 24.736 10.9069 24.16C11.4616 23.5627 11.8989 22.784 12.2189 21.824C12.5816 20.864 12.8376 19.808 12.9869 18.656C13.1362 17.504 13.2109 16.416 13.2109 15.392C13.2109 14.1973 13.1149 13.024 12.9229 11.872C12.7522 10.72 12.4749 9.68533 12.0909 8.768C11.7496 7.872 11.3016 7.15733 10.7469 6.624C10.1922 6.09066 9.53089 5.824 8.76289 5.824C7.90955 5.824 7.20555 6.09066 6.65089 6.624C6.11755 7.15733 5.69089 7.88266 5.37089 8.8C5.00822 9.71733 4.76289 10.752 4.63489 11.904C4.50689 13.056 4.44289 14.2187 4.44289 15.392Z" fill="white"/>
<path d="M11.8433 53.3137L23.157 42" stroke="white" stroke-linecap="round"/>
<path d="M27.5211 85.9857H17.5371V83.7777L27.5531 68.8337H30.8491V83.4257H34.1771V85.9857H30.8491V92.3537H27.5211V85.9857ZM21.0571 83.4257H27.5211V73.4417H27.4251L21.0571 83.4257Z" fill="white"/>
<path d="M0.959805 90.5297C4.54381 87.3724 7.59447 83.8737 10.1118 80.0337C11.1358 78.455 11.6478 76.7804 11.6478 75.0097C11.6478 73.9857 11.2958 73.111 10.5918 72.3857C9.90914 71.6604 8.82114 71.2977 7.32781 71.2977C6.1758 71.2977 5.17314 71.671 4.3198 72.4177C3.7438 72.951 3.38114 73.7404 3.2318 74.7857H0.799805C0.991805 73.2284 1.54647 71.959 2.4638 70.9777C3.8078 69.5484 5.55714 68.8337 7.7118 68.8337C10.1225 68.8337 11.9891 69.495 13.3118 70.8177C14.7411 72.183 15.3918 73.8897 15.2638 75.9377C15.1358 77.943 14.3145 79.8844 12.7998 81.7617C10.0265 85.2604 7.47714 88.0124 5.1518 90.0177H10.5278C11.5305 90.0177 12.3091 89.879 12.8638 89.6017C13.4398 89.3244 13.8451 88.599 14.0798 87.4257C14.1865 86.8924 14.5171 86.6684 15.0718 86.7537C15.6478 86.8177 15.9251 87.095 15.9038 87.5857L15.5518 92.3537H0.959805V90.5297Z" fill="white"/>
</svg>
