<svg width="35" height="104" viewBox="0 0 35 104" fill="none" xmlns="http://www.w3.org/2000/svg">
<path d="M8.82675 27.392C7.35475 27.4133 6.10675 27.104 5.08275 26.464C4.05875 25.8027 3.22675 24.9173 2.58675 23.808C1.98942 22.72 1.55208 21.4507 1.27475 20C0.997417 18.5493 0.85875 17.0133 0.85875 15.392C0.85875 14.0267 0.98675 12.6507 1.24275 11.264C1.49875 9.856 1.92542 8.58667 2.52275 7.456C3.14142 6.32533 3.96275 5.39733 4.98675 4.672C6.01075 3.92533 7.26942 3.54133 8.76275 3.52C10.2134 3.54133 11.4614 3.91467 12.5068 4.64C13.5521 5.344 14.3734 6.26133 14.9708 7.392C15.6108 8.50133 16.0694 9.77067 16.3468 11.2C16.6241 12.608 16.7628 14.0053 16.7628 15.392C16.7628 16.8213 16.6241 18.2507 16.3468 19.68C16.0694 21.1093 15.6108 22.3893 14.9708 23.52C14.3734 24.672 13.5521 25.6107 12.5068 26.336C11.4828 27.0613 10.2561 27.4133 8.82675 27.392ZM4.44275 15.392C4.44275 16.5013 4.50675 17.632 4.63475 18.784C4.78408 19.936 5.02942 20.9813 5.37075 21.92C5.71208 22.88 6.16008 23.6373 6.71475 24.192C7.26942 24.7467 7.97342 25.024 8.82675 25.024C9.65875 25.024 10.3521 24.736 10.9068 24.16C11.4614 23.5627 11.8988 22.784 12.2188 21.824C12.5814 20.864 12.8374 19.808 12.9868 18.656C13.1361 17.504 13.2108 16.416 13.2108 15.392C13.2108 14.1973 13.1148 13.024 12.9228 11.872C12.7521 10.72 12.4748 9.68533 12.0908 8.768C11.7494 7.872 11.3014 7.15733 10.7468 6.624C10.1921 6.09067 9.53075 5.824 8.76275 5.824C7.90942 5.824 7.20542 6.09067 6.65075 6.624C6.11742 7.15733 5.69075 7.88267 5.37075 8.8C5.00808 9.71733 4.76275 10.752 4.63475 11.904C4.50675 13.056 4.44275 14.2187 4.44275 15.392ZM25.948 27.392C23.4733 27.392 21.5533 26.784 20.188 25.568C18.844 24.352 18.172 22.7947 18.172 20.896C18.172 19.1893 18.6093 17.824 19.484 16.8C20.38 15.7547 21.3827 15.0827 22.492 14.784V14.752C21.2547 14.4107 20.3053 13.792 19.644 12.896C19.004 11.9787 18.684 10.8267 18.684 9.44C18.684 7.79733 19.3453 6.4 20.668 5.248C21.9907 4.07467 23.7293 3.488 25.884 3.488C27.996 3.488 29.7453 4.02133 31.132 5.088C32.54 6.13333 33.244 7.63733 33.244 9.6C33.244 11.0933 32.8387 12.2667 32.028 13.12C31.2173 13.952 30.364 14.496 29.468 14.752V14.784C30.7267 15.1467 31.772 15.8293 32.604 16.832C33.4573 17.8347 33.884 19.1147 33.884 20.672C33.884 22.6987 33.1587 24.3307 31.708 25.568C30.2787 26.784 28.3587 27.392 25.948 27.392ZM22.14 9.568C22.14 10.08 22.204 10.6027 22.332 11.136C22.4813 11.648 22.7373 12.0853 23.1 12.448C23.3987 12.8533 23.7827 13.1733 24.252 13.408C24.7213 13.6213 25.2653 13.728 25.884 13.728C27.1427 13.728 28.1027 13.3973 28.764 12.736C29.4253 12.0533 29.756 10.9973 29.756 9.568C29.756 8.43733 29.4253 7.49867 28.764 6.752C28.1027 5.984 27.1427 5.6 25.884 5.6C24.6893 5.6 23.7613 5.96267 23.1 6.688C22.46 7.392 22.14 8.352 22.14 9.568ZM21.82 20.736C21.82 22.08 22.1507 23.1573 22.812 23.968C23.4733 24.7787 24.4973 25.184 25.884 25.184C27.1427 25.184 28.188 24.8213 29.02 24.096C29.852 23.3493 30.268 22.2187 30.268 20.704C30.2893 19.2107 29.9053 18.0267 29.116 17.152C28.3267 16.2773 27.2493 15.84 25.884 15.84C24.604 15.84 23.6013 16.2987 22.876 17.216C22.172 18.1333 21.82 19.3067 21.82 20.736Z" fill="white"/>
<path d="M11.8433 53.3137L23.157 42" stroke="white" stroke-linecap="round"/>
<path d="M0.96 90.5297C4.544 87.3724 7.59467 83.8737 10.112 80.0337C11.136 78.455 11.648 76.7804 11.648 75.0097C11.648 73.9857 11.296 73.111 10.592 72.3857C9.90933 71.6604 8.82133 71.2977 7.328 71.2977C6.176 71.2977 5.17333 71.671 4.32 72.4177C3.744 72.951 3.38133 73.7404 3.232 74.7857H0.8C0.992 73.2284 1.54667 71.959 2.464 70.9777C3.808 69.5484 5.55733 68.8337 7.712 68.8337C10.1227 68.8337 11.9893 69.495 13.312 70.8177C14.7413 72.183 15.392 73.8897 15.264 75.9377C15.136 77.943 14.3147 79.8844 12.8 81.7617C10.0267 85.2604 7.47733 88.0124 5.152 90.0177H10.528C11.5307 90.0177 12.3093 89.879 12.864 89.6017C13.44 89.3244 13.8453 88.599 14.08 87.4257C14.1867 86.8924 14.5173 86.6684 15.072 86.7537C15.648 86.8177 15.9253 87.095 15.904 87.5857L15.552 92.3537H0.96V90.5297ZM27.5213 85.9857H17.5373V83.7777L27.5533 68.8337H30.8493V83.4257H34.1772V85.9857H30.8493V92.3537H27.5213V85.9857ZM21.0573 83.4257H27.5213V73.4417H27.4253L21.0573 83.4257Z" fill="white"/>
</svg>
